<svg width="24" height="24" viewBox="0 0 24 24" fill="none" xmlns="http://www.w3.org/2000/svg">
<path fill-rule="evenodd" clip-rule="evenodd" d="M1.47553 23.8402C2.29044 23.8402 2.95105 23.1488 2.95105 22.2958L2.95105 1.70417C2.95105 0.85124 2.29044 0.159799 1.47553 0.159799C0.660621 0.159799 7.15896e-06 0.851239 7.12334e-06 1.70417L6.26338e-06 22.2958C6.22776e-06 23.1488 0.66062 23.8402 1.47553 23.8402Z" fill="#D9D9D9"/>
<path d="M6.92048 10.2954C5.76902 11.1123 5.76902 12.8877 6.92048 13.7046L20.9288 23.6419C22.2352 24.5686 24 23.5891 24 21.9373L24 2.06267C24 0.410888 22.2352 -0.568599 20.9288 0.358117L6.92048 10.2954Z" fill="#D9D9D9"/>
</svg>
