<svg width="22" height="23" viewBox="0 0 22 23" fill="none" xmlns="http://www.w3.org/2000/svg">
<path d="M14.729 16.1235C9.57875 20.5268 1.60972 17.8123 0.211721 11.2026C-1.10681 5.36424 3.93713 -0.15101 9.86655 0.562888C15.3807 1.11771 19.0653 6.87328 17.3192 12.1034C17.2053 12.4468 16.9417 12.6564 16.5936 12.6816C16.0095 12.7385 15.5198 12.1612 15.7133 11.6016C16.0114 10.6726 16.114 9.72022 16.0312 8.75008C15.7948 5.76363 13.5464 3.11991 10.6288 2.4274C1.69965 0.534442 -1.88732 12.6853 6.33057 16.0982C9.16277 17.201 12.4282 16.3337 14.3709 14.0223C14.5892 13.7626 14.8609 13.7515 15.092 13.9954C15.3424 14.2596 15.591 14.5259 15.8406 14.7912C17.8064 16.882 19.7718 18.9729 21.7379 21.0634C22.1136 21.463 22.0822 22.0299 21.665 22.3401C21.3299 22.5891 20.8784 22.5454 20.5706 22.2274C18.6227 20.1934 16.6689 18.1648 14.729 16.1237V16.1235Z" fill="#707070"/>
</svg>
