<svg width="31" height="24" viewBox="0 0 31 24" fill="none" xmlns="http://www.w3.org/2000/svg">
<g clip-path="url(#clip0_16_479)">
<path d="M0.464355 7.04663C0.622927 6.2583 1.20762 5.68471 1.94813 5.70861C3.78976 5.71373 5.63109 5.71237 7.47272 5.70656C7.57711 5.70656 7.69558 5.66901 7.78313 5.60653C10.2052 3.86086 12.6646 2.17152 15.0627 0.388974C15.9309 -0.491544 17.3599 0.225434 17.3893 1.52214C17.3948 8.45191 17.388 15.3824 17.3935 22.3125C17.4382 23.5911 16.1816 24.4651 15.2042 23.7345C12.7714 21.9024 10.2725 20.1827 7.80854 18.4036C7.69589 18.323 7.58538 18.2885 7.45221 18.2889C5.63629 18.2926 3.82007 18.2916 2.00415 18.2912C1.16538 18.2984 0.690886 17.8266 0.464355 16.9484C0.464355 13.648 0.464355 10.3471 0.464355 7.04663Z" fill="#D9D9D9"/>
<path d="M30.4644 12.6461C30.2378 17.0016 27.9591 21.1512 24.4521 23.1485C24.0734 23.366 23.7009 23.6108 23.2683 23.6831C22.6304 23.79 21.9872 23.3725 21.7466 22.6968C21.5081 22.028 21.6961 21.2779 22.2413 20.8712C22.5786 20.6193 22.9491 20.4219 23.3051 20.2014C28.7164 17.0231 29.1205 8.14452 24.0774 4.32883C23.4591 3.84572 22.7345 3.52854 22.1241 3.03075C21.6725 2.61798 21.5274 1.90373 21.7506 1.2943C21.979 0.671212 22.563 0.261169 23.1413 0.302481C23.4667 0.325697 23.7529 0.469776 24.0367 0.623755C27.8792 2.64632 30.1264 6.68973 30.4644 11.3491V12.6465V12.6461Z" fill="#D9D9D9"/>
<path d="M24.8332 12.0059C24.831 14.4123 23.5095 16.8558 21.3954 17.7892C20.8499 18.0299 20.339 17.9309 19.9034 17.4861C19.4708 17.0443 19.3487 16.4888 19.5128 15.8684C19.6236 15.4485 19.9196 15.1825 20.2254 14.9394C20.4538 14.7581 20.6904 14.5898 20.9243 14.4177C21.5264 13.9742 21.8751 13.3487 21.9669 12.5556C22.1188 11.4976 21.8577 10.3057 21.0229 9.66894C20.6984 9.42312 20.3659 9.18822 20.0546 8.9226C19.4877 8.43881 19.311 7.79455 19.5345 7.11752C19.799 6.3169 20.6497 5.88295 21.3547 6.19877C23.2787 7.06153 24.3272 8.70887 24.7407 10.9199C24.8065 11.2767 24.8133 11.643 24.8332 12.0056V12.0059Z" fill="#D9D9D9"/>
</g>
<defs>
<clipPath id="clip0_16_479">
<rect width="30" height="24" fill="white" transform="translate(0.464355)"/>
</clipPath>
</defs>
</svg>
